# xmcd CD database file
#
# Track frame offsets:
#	150
#	20698
#	37668
#	53500
#	69227
#	90146
#	107707
#	125702
#	152968
#	174982
#
# Disc length: 2814 seconds
#
# Revision: 0
# Processed by: cddbd v1.5.1PL0 Copyright (c) Steve Scherf et al.
# Submitted via: CDex 1.51
#
DISCID=6f0afc0a
DTITLE=Yngwie J. Malmsteen - Facing Cozy's Imagination
DYEAR=1900
DGENRE=Heavy Metal
TTITLE0=Enemy
TTITLE1=The One
TTITLE2=Playing With Fire
TTITLE3=Heathens Form The North
TTITLE4=End Of My Rope
TTITLE5=Pearls And Swines (Casting Pearls Before The Swine)
TTITLE6=Sacrifice
TTITLE7=Like An Angel
TTITLE8=Another Time
TTITLE9=Only The Strong
EXTD=
EXTT0=
EXTT1=
EXTT2=
EXTT3=
EXTT4=
EXTT5=
EXTT6=
EXTT7=
EXTT8=
EXTT9=
PLAYORDER=
